<?xml version="1.0" encoding="UTF-8" standalone="no"?>
<!-- Created with Inkscape (http://www.inkscape.org/) -->

<svg
   width="128"
   height="128"
   viewBox="0 0 33.866666 33.866666"
   version="1.1"
   id="svg5"
   inkscape:version="1.2-alpha1 (b6a15bbbed, 2022-02-23)"
   sodipodi:docname="plugin_icon.svg"
   xmlns:inkscape="http://www.inkscape.org/namespaces/inkscape"
   xmlns:sodipodi="http://sodipodi.sourceforge.net/DTD/sodipodi-0.dtd"
   xmlns="http://www.w3.org/2000/svg"
   xmlns:svg="http://www.w3.org/2000/svg">
  <sodipodi:namedview
     id="namedview7"
     pagecolor="#ffffff"
     bordercolor="#999999"
     borderopacity="1"
     inkscape:pageshadow="0"
     inkscape:pageopacity="0"
     inkscape:pagecheckerboard="0"
     inkscape:deskcolor="#d1d1d1"
     inkscape:document-units="mm"
     showgrid="false"
     inkscape:zoom="2.0888418"
     inkscape:cx="36.383798"
     inkscape:cy="83.778483"
     inkscape:window-width="1920"
     inkscape:window-height="1009"
     inkscape:window-x="-8"
     inkscape:window-y="-8"
     inkscape:window-maximized="1"
     inkscape:current-layer="svg5" />
  <defs
     id="defs2" />
  <path
     id="rect892"
     style="fill:#8eef97;fill-opacity:1;stroke:none;stroke-width:0.172958;stroke-linecap:round;stroke-linejoin:round;fill-rule:nonzero"
     inkscape:label="rect892"
     d="M 8.0000285 0 A 8 8 0 0 0 0 8.0000285 L 0 25.866638 A 8 8 0 0 0 8.0000285 33.866667 L 25.866638 33.866667 A 8 8 0 0 0 33.866667 25.866638 L 33.866667 8.0000285 A 8 8 0 0 0 25.866638 0 L 8.0000285 0 z M 8.0000285 3.9997559 L 25.866638 3.9997559 A 4 4 0 0 1 29.866911 8.0000285 L 29.866911 25.866638 A 4 4 0 0 1 25.866638 29.866911 L 8.0000285 29.866911 A 4 4 0 0 1 3.9997559 25.866638 L 3.9997559 8.0000285 A 4 4 0 0 1 8.0000285 3.9997559 z " />
  <path
     id="path17344"
     style="fill:#8eef97;fill-opacity:1;fill-rule:nonzero;stroke:none;stroke-width:0.200529;stroke-linecap:round;stroke-linejoin:round"
     d="M 10.000272,12.933061 C 7.7909206,12.932911 5.9998498,14.723982 6,16.933333 c 1.348e-4,2.20915 1.7911221,3.999906 4.000272,3.999756 v -1.999877 c 0,-2.979435 0,-2.758746 0,-4.000273 z"
     sodipodi:nodetypes="cccssc" />
  <path
     id="path20789"
     style="fill:#8eef97;fill-opacity:1;fill-rule:nonzero;stroke:none;stroke-width:0.200529;stroke-linecap:round;stroke-linejoin:round"
     d="m 23.867,12.933061 v 1.999877 4.000273 1.999877 c 2.208948,-1.35e-4 3.999621,-1.790807 3.999756,-3.999755 1.5e-4,-2.20915 -1.790606,-4.000137 -3.999756,-4.000272 z"
     sodipodi:nodetypes="cssccc" />
  <path
     id="path28120"
     style="fill:#8eef97;fill-opacity:1;fill-rule:nonzero;stroke:none;stroke-width:0.200529;stroke-linecap:round;stroke-linejoin:round"
     d="M 20.933605,10.000272 C 20.933755,7.7909206 19.142684,5.9998498 16.933333,6 c -2.20915,1.348e-4 -3.999906,1.7911221 -3.999756,4.000272 h 1.999877 c 2.992133,0 3.000248,0 4.000273,0 1.000025,0 1.999878,0 1.999878,0 z"
     sodipodi:nodetypes="cccssc" />
  <path
     id="path28122"
     style="fill:#8eef97;fill-opacity:1;fill-rule:nonzero;stroke:none;stroke-width:0.200529;stroke-linecap:round;stroke-linejoin:round"
     d="m 20.933605,23.867 h -1.999877 c -4.257804,0 -2.188177,0 -4.000273,0 h -1.999877 c 1.35e-4,2.208948 1.790807,3.999621 3.999755,3.999756 2.20915,1.5e-4 4.000137,-1.790606 4.000272,-3.999756 z"
     sodipodi:nodetypes="cssccc" />
  <circle
     style="display:none;fill:#8eef97;fill-opacity:1;fill-rule:nonzero;stroke:none;stroke-width:0.238125;stroke-linecap:round;stroke-linejoin:round"
     id="path46539"
     cx="16.933636"
     cy="16.933636"
     r="2.5974066" />
</svg>
