<?xml version="1.0" encoding="UTF-8"?>
<!-- Created with Inkscape (http://www.inkscape.org/) -->
<svg width="16" height="16" version="1.1" viewBox="0 0 4.2333 4.2333" xmlns="http://www.w3.org/2000/svg">
 <g fill="#8eef97">
  <path d="m0.99997 0a1 1 0 0 0-1 1v2.2333a1 1 0 0 0 1 1h2.2333a1 1 0 0 0 1-1v-2.2333a1 1 0 0 0-1-1zm0 0.49997h2.2333a0.5 0.5 0 0 1 0.50003 0.50003v2.2333a0.5 0.5 0 0 1-0.50003 0.50003h-2.2333a0.5 0.5 0 0 1-0.50003-0.50003v-2.2333a0.5 0.5 0 0 1 0.50003-0.50003z"/>
  <path d="m1.25 1.6166c-0.27617-1.8e-5 -0.50005 0.22387-0.50003 0.50003 1.7e-5 0.27614 0.22389 0.49999 0.50003 0.49997v-0.24998-0.50003z"/>
  <path d="m2.9833 1.6166v1c0.27612-1.7e-5 0.49995-0.22385 0.49997-0.49997 1.9e-5 -0.27614-0.22382-0.50002-0.49997-0.50003z"/>
  <path d="m2.6167 1.25c1.9e-5 -0.27617-0.22386-0.50005-0.50003-0.50003-0.27614 1.7e-5 -0.49999 0.22389-0.49997 0.50003h0.24998 0.50003 0.24998z"/>
  <path d="m2.6167 2.9834h-0.24998-0.50003-0.24998c1.7e-5 0.27612 0.22385 0.49995 0.49997 0.49997 0.27614 1.9e-5 0.50002-0.22382 0.50003-0.49997z"/>
  <circle cx="2.1167" cy="2.1167" r=".32468" display="none"/>
 </g>
</svg>
